# xmcd CD database file
#
# Track frame offsets:
#	150
#	14430
#	25890
#	40199
#	53012
#	66760
#	79381
#	93098
#	107810
#	122359
#	136403
#	198310
#	212835
#	227295
#	241248
#	255216
#	269634
#	283734
#	295424
#	308688
#	322555
#	335297
#
# Disc length: 4644 seconds
#
# Revision: 0
# Processed by: cddbd v1.5.2PL0 Copyright (c) Steve Scherf et al.
# Submitted via: CDex 1.70beta2
#
DISCID=2a122216
DTITLE=Various Artist - The Story Of Big Bands 1914 - 1955 (6)
DYEAR=2006
DGENRE=Jazz
TTITLE0=Earl Hines And His Orchestra, Stormy Monday Blues
TTITLE1=Cootie Williams And His Orchestra, Epistrophy
TTITLE2=Lionel Hampton And His Orchestra, Flying Home
TTITLE3=Duke Ellington And His Orchestra, Main Stern
TTITLE4=Jay McShann And His Orchestra, The Jumpin' Blues
TTITLE5=Charlie Barnet And His Orchestra, Pow-Wow
TTITLE6=Charlie Barnet And His Orchestra, Skyliner
TTITLE7=Louis Armstrong And His Orchestra, Ain't Misbehavin'
TTITLE8=Roy Eldridge And His Orchestra, Fish Market
TTITLE9=Lionel Hampton And His Orchestra, Million Dollar Smile
TTITLE10=Duke Ellington And His Orchestra, Black Brown And Beige
TTITLE11=Georgie Auld And His Orchestra, In The Middle
TTITLE12=Count Basie And His Orchestra, Avenue C
TTITLE13=Woody Herman And His Orchestra, Caldonia
TTITLE14=Artie Shaw And His Orchestra, Little Jazz
TTITLE15=Boyd Raeburn And His Orchestra, Boyd's Nest
TTITLE16=Lionel Hampton And His Orchestra, Beulah's Boogie
TTITLE17=Woody Herman And His Orchestra, The Good Earth
TTITLE18=Billy Eckstine And His Orchestra, I'm In The Mood For Love
TTITLE19=Count Basie And His Orchestra, Queer Street
TTITLE20=Eddie Vinson And His Orchestra, Cherry Red
TTITLE21=Benny Carter And His Orchestra, Diga Diga Doo
EXTD=YEAR: 2006
EXTT0=
EXTT1=
EXTT2=
EXTT3=
EXTT4=
EXTT5=
EXTT6=
EXTT7=
EXTT8=
EXTT9=
EXTT10=
EXTT11=
EXTT12=
EXTT13=
EXTT14=
EXTT15=
EXTT16=
EXTT17=
EXTT18=
EXTT19=
EXTT20=
EXTT21=
PLAYORDER=
